<svg width="244" height="249" viewBox="0 0 244 249" fill="none" xmlns="http://www.w3.org/2000/svg">
<rect x="11.0645" y="16.2897" width="232.936" height="232.71" rx="28" fill="#B8B8FF"/>
<rect width="232.936" height="232.71" rx="28" fill="#F8F7FF"/>
<rect width="233" height="233" rx="28" fill="#9381FF" fill-opacity="0.31"/>
<path d="M34.9683 174.284L36.8003 168.604H38.0923L35.44 176H34.4761L31.7964 168.604H33.0884L34.9683 174.284ZM43.2731 176H42.0085V168.604H43.2731V176ZM41.9059 166.642C41.9059 166.437 41.9675 166.263 42.0905 166.122C42.2181 165.981 42.405 165.91 42.6511 165.91C42.8971 165.91 43.084 165.981 43.2116 166.122C43.3392 166.263 43.403 166.437 43.403 166.642C43.403 166.847 43.3392 167.018 43.2116 167.154C43.084 167.291 42.8971 167.359 42.6511 167.359C42.405 167.359 42.2181 167.291 42.0905 167.154C41.9675 167.018 41.9059 166.847 41.9059 166.642ZM50.9627 176.137C49.9601 176.137 49.1444 175.809 48.5155 175.152C47.8866 174.492 47.5721 173.61 47.5721 172.507V172.274C47.5721 171.541 47.7111 170.887 47.9891 170.312C48.2717 169.734 48.6636 169.283 49.1649 168.959C49.6707 168.631 50.2176 168.467 50.8055 168.467C51.7671 168.467 52.5145 168.784 53.0477 169.417C53.5809 170.05 53.8475 170.957 53.8475 172.138V172.664H48.8368C48.855 173.393 49.0669 173.983 49.4725 174.435C49.8827 174.881 50.4022 175.104 51.0311 175.104C51.4777 175.104 51.856 175.013 52.1659 174.831C52.4758 174.649 52.7469 174.407 52.9793 174.106L53.7518 174.708C53.132 175.66 52.2023 176.137 50.9627 176.137ZM50.8055 169.506C50.2951 169.506 49.8667 169.693 49.5204 170.066C49.174 170.436 48.9598 170.955 48.8778 171.625H52.5829V171.529C52.5464 170.887 52.3732 170.39 52.0633 170.039C51.7534 169.684 51.3342 169.506 50.8055 169.506ZM64.4561 174.257L65.8779 168.604H67.1426L64.9893 176H63.9639L62.166 170.395L60.416 176H59.3906L57.2441 168.604H58.502L59.958 174.141L61.6807 168.604H62.6992L64.4561 174.257ZM76.7523 172.233C76.7523 171.509 76.8935 170.857 77.1761 170.278C77.4632 169.7 77.8597 169.253 78.3655 168.938C78.876 168.624 79.457 168.467 80.1087 168.467C81.1159 168.467 81.9293 168.815 82.5491 169.513C83.1735 170.21 83.4857 171.137 83.4857 172.295V172.384C83.4857 173.104 83.3467 173.751 83.0687 174.325C82.7952 174.895 82.401 175.339 81.8861 175.658C81.3756 175.977 80.7877 176.137 80.1224 176.137C79.1198 176.137 78.3063 175.788 77.682 175.091C77.0622 174.394 76.7523 173.471 76.7523 172.322V172.233ZM78.0238 172.384C78.0238 173.204 78.2129 173.863 78.5911 174.359C78.9739 174.856 79.4844 175.104 80.1224 175.104C80.765 175.104 81.2754 174.854 81.6536 174.353C82.0319 173.847 82.221 173.14 82.221 172.233C82.221 171.422 82.0273 170.766 81.64 170.265C81.2571 169.759 80.7467 169.506 80.1087 169.506C79.4844 169.506 78.9808 169.754 78.598 170.251C78.2152 170.748 78.0238 171.459 78.0238 172.384ZM88.8579 168.604L88.8989 169.533C89.464 168.822 90.2023 168.467 91.1138 168.467C92.6769 168.467 93.4653 169.349 93.479 171.112V176H92.2143V171.105C92.2098 170.572 92.0867 170.178 91.8452 169.923C91.6082 169.668 91.2368 169.54 90.7309 169.54C90.3208 169.54 89.9608 169.649 89.6509 169.868C89.341 170.087 89.0994 170.374 88.9263 170.729V176H87.6616V168.604H88.8579Z" fill="#F8F7FF"/>
<path d="M144.468 174.284L146.3 168.604H147.592L144.94 176H143.976L141.296 168.604H142.588L144.468 174.284ZM152.773 176H151.508V168.604H152.773V176ZM151.406 166.642C151.406 166.437 151.467 166.263 151.591 166.122C151.718 165.981 151.905 165.91 152.151 165.91C152.397 165.91 152.584 165.981 152.712 166.122C152.839 166.263 152.903 166.437 152.903 166.642C152.903 166.847 152.839 167.018 152.712 167.154C152.584 167.291 152.397 167.359 152.151 167.359C151.905 167.359 151.718 167.291 151.591 167.154C151.467 167.018 151.406 166.847 151.406 166.642ZM160.463 176.137C159.46 176.137 158.644 175.809 158.015 175.152C157.387 174.492 157.072 173.61 157.072 172.507V172.274C157.072 171.541 157.211 170.887 157.489 170.312C157.772 169.734 158.164 169.283 158.665 168.959C159.171 168.631 159.718 168.467 160.306 168.467C161.267 168.467 162.014 168.784 162.548 169.417C163.081 170.05 163.347 170.957 163.347 172.138V172.664H158.337C158.355 173.393 158.567 173.983 158.972 174.435C159.383 174.881 159.902 175.104 160.531 175.104C160.978 175.104 161.356 175.013 161.666 174.831C161.976 174.649 162.247 174.407 162.479 174.106L163.252 174.708C162.632 175.66 161.702 176.137 160.463 176.137ZM160.306 169.506C159.795 169.506 159.367 169.693 159.02 170.066C158.674 170.436 158.46 170.955 158.378 171.625H162.083V171.529C162.046 170.887 161.873 170.39 161.563 170.039C161.253 169.684 160.834 169.506 160.306 169.506ZM173.956 174.257L175.378 168.604H176.643L174.489 176H173.464L171.666 170.395L169.916 176H168.891L166.744 168.604H168.002L169.458 174.141L171.181 168.604H172.199L173.956 174.257ZM186.252 172.233C186.252 171.509 186.394 170.857 186.676 170.278C186.963 169.7 187.36 169.253 187.866 168.938C188.376 168.624 188.957 168.467 189.609 168.467C190.616 168.467 191.429 168.815 192.049 169.513C192.673 170.21 192.986 171.137 192.986 172.295V172.384C192.986 173.104 192.847 173.751 192.569 174.325C192.295 174.895 191.901 175.339 191.386 175.658C190.876 175.977 190.288 176.137 189.622 176.137C188.62 176.137 187.806 175.788 187.182 175.091C186.562 174.394 186.252 173.471 186.252 172.322V172.233ZM187.524 172.384C187.524 173.204 187.713 173.863 188.091 174.359C188.474 174.856 188.984 175.104 189.622 175.104C190.265 175.104 190.775 174.854 191.154 174.353C191.532 173.847 191.721 173.14 191.721 172.233C191.721 171.422 191.527 170.766 191.14 170.265C190.757 169.759 190.247 169.506 189.609 169.506C188.984 169.506 188.481 169.754 188.098 170.251C187.715 170.748 187.524 171.459 187.524 172.384ZM198.358 168.604L198.399 169.533C198.964 168.822 199.702 168.467 200.614 168.467C202.177 168.467 202.965 169.349 202.979 171.112V176H201.714V171.105C201.71 170.572 201.587 170.178 201.345 169.923C201.108 169.668 200.737 169.54 200.231 169.54C199.821 169.54 199.461 169.649 199.151 169.868C198.841 170.087 198.599 170.374 198.426 170.729V176H197.162V168.604H198.358Z" fill="#F8F7FF"/>
<line x1="117.5" x2="117.5" y2="233" stroke="#F8F7FF"/>
</svg>
